<svg width="30" height="30" viewBox="0 0 30 30" fill="none" xmlns="http://www.w3.org/2000/svg">
<path fill-rule="evenodd" clip-rule="evenodd" d="M4 13.1351V28H11V19C11 18.4477 11.4477 18 12 18H18C18.5523 18 19 18.4477 19 19V28H26V13.1351L15 3L4 13.1351Z" fill="#111111"/>
<path d="M4 28H3.5V28.5H4V28ZM4 13.1351L3.6612 12.7674L3.5 12.9159V13.1351H4ZM11 28V28.5H11.5V28H11ZM19 28H18.5V28.5H19V28ZM26 28V28.5H26.5V28H26ZM26 13.1351H26.5V12.9159L26.3388 12.7674L26 13.1351ZM15 3L15.3388 2.63229L15 2.32012L14.6612 2.63229L15 3ZM4.5 28V13.1351H3.5V28H4.5ZM11 27.5H4V28.5H11V27.5ZM11.5 28V19H10.5V28H11.5ZM11.5 19C11.5 18.7239 11.7239 18.5 12 18.5V17.5C11.1716 17.5 10.5 18.1716 10.5 19H11.5ZM12 18.5H18V17.5H12V18.5ZM18 18.5C18.2761 18.5 18.5 18.7239 18.5 19H19.5C19.5 18.1716 18.8284 17.5 18 17.5V18.5ZM18.5 19V28H19.5V19H18.5ZM26 27.5H19V28.5H26V27.5ZM25.5 13.1351V28H26.5V13.1351H25.5ZM14.6612 3.36771L25.6612 13.5028L26.3388 12.7674L15.3388 2.63229L14.6612 3.36771ZM4.3388 13.5028L15.3388 3.36771L14.6612 2.63229L3.6612 12.7674L4.3388 13.5028Z" fill="#111111"/>
</svg>
