<svg width="30" height="30" viewBox="0 0 30 30" fill="none" xmlns="http://www.w3.org/2000/svg">
<path d="M22.501 10.0369C21.8309 8.66175 19.9006 7.53658 17.6553 8.19168C16.5824 8.50159 15.6462 9.16621 14.9999 10.077C14.3535 9.16621 13.4174 8.50159 12.3445 8.19168C10.0942 7.54658 8.16888 8.66175 7.49879 10.0369C6.55865 11.9622 6.94871 14.1276 8.65896 16.4729C9.99915 18.3082 11.9144 20.1684 14.6948 22.3288C14.7827 22.3973 14.891 22.4345 15.0024 22.4345C15.1138 22.4345 15.2221 22.3973 15.3099 22.3288C18.0853 20.1734 20.0056 18.3282 21.3458 16.4729C23.0511 14.1276 23.4411 11.9622 22.501 10.0369V10.0369Z" fill="black"/>
</svg>
