<svg width="30" height="30" viewBox="0 0 30 30" fill="none" xmlns="http://www.w3.org/2000/svg">
<path d="M20.0432 12.8592L20.0431 12.8592L20.0476 12.8617L23.9579 15L20.0514 17.1363C20.0507 17.1367 20.0501 17.137 20.0495 17.1373C18.8086 17.8027 17.8176 18.8265 17.1307 20.0492L17.1307 20.0492L17.1282 20.0537L14.986 23.9601L12.8458 20.0575C12.8454 20.0568 12.8451 20.0561 12.8447 20.0555C12.1783 18.8162 11.153 17.8266 9.9288 17.1408L9.92543 17.1389L6.03971 15.0013L9.95058 12.8626C11.1914 12.1972 12.1825 11.1734 12.8693 9.95077L12.8694 9.9508L12.8729 9.94428L14.9884 6.04424L17.1272 9.94451C17.7937 11.1838 18.819 12.1734 20.0432 12.8592Z" fill="white" stroke="#111111"/>
</svg>
