<svg width="30" height="30" viewBox="0 0 30 30" fill="none" xmlns="http://www.w3.org/2000/svg">
<path fill-rule="evenodd" clip-rule="evenodd" d="M15.145 29.406C15.145 29.406 25.29 19.4639 25.29 10.4687C25.29 5.23927 20.7479 1 15.145 1C9.54207 1 5 5.23927 5 10.4687C5 19.4639 15.145 29.406 15.145 29.406ZM15.1449 17.232C18.5067 17.232 21.2319 14.5068 21.2319 11.145C21.2319 7.78323 18.5067 5.05799 15.1449 5.05799C11.7832 5.05799 9.05793 7.78323 9.05793 11.145C9.05793 14.5068 11.7832 17.232 15.1449 17.232Z" fill="#111111"/>
<path fill-rule="evenodd" clip-rule="evenodd" d="M15.1449 12.3624C15.8172 12.3624 16.3623 11.8174 16.3623 11.145C16.3623 10.4727 15.8172 9.92761 15.1449 9.92761C14.4725 9.92761 13.9275 10.4727 13.9275 11.145C13.9275 11.8174 14.4725 12.3624 15.1449 12.3624Z" fill="#111111"/>
</svg>
