<svg width="30" height="30" viewBox="0 0 30 30" fill="none" xmlns="http://www.w3.org/2000/svg">
<g clip-path="url(#clip0_834_7037)">
<path fill-rule="evenodd" clip-rule="evenodd" d="M15.1429 29.4C15.1429 29.4 25.2857 19.46 25.2857 10.4667C25.2857 5.23837 20.7446 1 15.1429 1C9.54111 1 5 5.23837 5 10.4667C5 19.46 15.1429 29.4 15.1429 29.4Z" fill="white" stroke="#111111"/>
<path fill-rule="evenodd" clip-rule="evenodd" d="M15.1428 17.2286C18.5039 17.2286 21.2286 14.5039 21.2286 11.1428C21.2286 7.7818 18.5039 5.05713 15.1428 5.05713C11.7818 5.05713 9.05713 7.7818 9.05713 11.1428C9.05713 14.5039 11.7818 17.2286 15.1428 17.2286Z" fill="#111111"/>
<path fill-rule="evenodd" clip-rule="evenodd" d="M15.1429 12.36C15.8151 12.36 16.3601 11.815 16.3601 11.1428C16.3601 10.4706 15.8151 9.92569 15.1429 9.92569C14.4707 9.92569 13.9258 10.4706 13.9258 11.1428C13.9258 11.815 14.4707 12.36 15.1429 12.36Z" fill="white"/>
</g>
<defs>
<clipPath id="clip0_834_7037">
<rect width="30" height="30" fill="white"/>
</clipPath>
</defs>
</svg>
