<svg width="30" height="30" viewBox="0 0 30 30" fill="none" xmlns="http://www.w3.org/2000/svg">
<path d="M15 22.434C14.8895 22.4336 14.7822 22.3967 14.695 22.329C11.9145 20.1686 9.9992 18.3083 8.65898 16.473C6.9487 14.1276 6.55864 11.9623 7.49879 10.037C8.1689 8.66176 10.0942 7.53657 12.3446 8.19168C13.4175 8.5016 14.3536 9.16623 15 10.077C15.6464 9.16623 16.5825 8.5016 17.6554 8.19168C19.9008 7.54658 21.8311 8.66176 22.5012 10.037C23.4414 11.9623 23.0513 14.1276 21.341 16.473C20.0008 18.3083 18.0855 20.1686 15.305 22.329C15.2178 22.3967 15.1105 22.4336 15 22.434V22.434ZM11.0644 9.00681C10.5289 8.98597 9.99788 9.11135 9.52829 9.36949C9.0587 9.62764 8.66828 10.0088 8.39894 10.472C7.62381 12.0623 7.97387 13.8326 9.46911 15.8779C11.0582 17.9275 12.9189 19.7512 15 21.2988C17.0808 19.7528 18.9415 17.9308 20.5309 15.8829C22.0311 13.8326 22.3762 12.0623 21.6011 10.477C21.101 9.47689 19.6007 8.68176 17.9305 9.15183C17.3949 9.31011 16.8984 9.57876 16.4729 9.9405C16.0475 10.3022 15.7024 10.749 15.4601 11.2522C15.4224 11.3439 15.3583 11.4223 15.2759 11.4776C15.1936 11.5328 15.0967 11.5622 14.9975 11.5622C14.8983 11.5622 14.8014 11.5328 14.7191 11.4776C14.6367 11.4223 14.5726 11.3439 14.5349 11.2522C14.2944 10.7478 13.9499 10.2999 13.5242 9.93797C13.0985 9.57601 12.601 9.30811 12.0645 9.15183C11.7395 9.05742 11.4029 9.00861 11.0644 9.00681V9.00681Z" fill="black"/>
</svg>
