<svg width="132" height="51" viewBox="0 0 132 51" fill="none" xmlns="http://www.w3.org/2000/svg">
<path d="M6.62467 50.1783C10.2834 50.1783 13.2493 38.9455 13.2493 25.0892C13.2493 11.2328 10.2834 0 6.62467 0C2.96596 0 0 11.2328 0 25.0892C0 38.9455 2.96596 50.1783 6.62467 50.1783Z" fill="black"/>
<path d="M26.4987 50.6012C33.8939 50.6012 39.889 39.3684 39.889 25.512C39.889 11.6557 33.8939 0.422852 26.4987 0.422852C19.1034 0.422852 13.1084 11.6557 13.1084 25.512C13.1084 39.3684 19.1034 50.6012 26.4987 50.6012Z" fill="black"/>
<path d="M65.0892 50.1783C78.9455 50.1783 90.1783 38.9455 90.1783 25.0891C90.1783 11.2327 78.9455 -6.10352e-05 65.0892 -6.10352e-05C51.2328 -6.10352e-05 40 11.2327 40 25.0891C40 38.9455 51.2328 50.1783 65.0892 50.1783Z" fill="black"/>
<path d="M106.84 0.352356L113.324 12.1922C114.875 15.0817 117.271 17.4073 120.16 19.0283L132 25.512L120.16 31.9957C117.271 33.5462 114.945 35.9423 113.324 38.8318L106.84 50.6716L100.357 38.8318C98.8062 35.9423 96.4101 33.6166 93.5206 31.9957L81.7512 25.512L93.5911 19.0283C96.4805 17.4778 98.8062 15.0817 100.427 12.1922L106.84 0.352356Z" fill="#82F74E"/>
</svg>
